<?xml version="1.0" encoding="UTF-8"?>
<svg xmlns="http://www.w3.org/2000/svg" viewBox="0 0 935.73 858.11">
  <defs>
    <style>
      .draw {
        stroke: #fff;
        stroke-miterlimit: 10;
        stroke-width: 4.08px;
        fill: #fff;
      }
    </style>
  </defs>
  <g>
    <rect class="draw" x="324.15" y="328.04" width="276" height="66"/>
    <rect class="draw" x="324.15" y="465.04" width="276" height="66"/>
    <rect class="draw" x="324.15" y="602.04" width="276" height="66"/>
    <rect class="draw" x="324.15" y="191.04" width="276" height="66"/>
  </g>
  <g>
    <path class="draw" d="M377.51,2.21C339.02-4.39,1.89,186.51,2.04,429.04c.15,242.45,337.37,433.39,375.47,426.84,34.39-5.91-190.87-169.77-193.42-421.92C181.46,176.59,412.68,8.25,377.51,2.21Z"/>
    <path class="draw" d="M751.63,433.98c-2.55,252.15-227.81,416.01-193.42,421.92,38.1,6.56,375.32-184.39,375.47-426.84,.15-242.53-336.98-433.43-375.47-426.84-35.16,6.04,196.05,174.38,193.42,431.75Z"/>
  </g>
</svg>
